<?xml version="1.0" ?><svg width="24px" height="24px" viewBox="0 0 24 24" data-name="025_SCIENCE" id="_025_SCIENCE" xmlns="http://www.w3.org/2000/svg"><defs><style>.cls-1{fill:#333;}</style></defs><path class="cls-1" d="M12,18A6,6,0,0,1,12,6a1,1,0,0,1,0,2,4,4,0,0,0,0,8,1,1,0,0,1,0,2Z"/><path class="cls-1" d="M12,5a1,1,0,0,1-1-1V3a1,1,0,0,1,2,0V4A1,1,0,0,1,12,5Z"/><path class="cls-1" d="M12,22a1,1,0,0,1-1-1V20a1,1,0,0,1,2,0v1A1,1,0,0,1,12,22Z"/><path class="cls-1" d="M4,13H3a1,1,0,0,1,0-2H4a1,1,0,0,1,0,2Z"/><path class="cls-1" d="M6.34,7.34a1,1,0,0,1-.7-.29l-.71-.71A1,1,0,0,1,6.34,4.93l.71.71a1,1,0,0,1,0,1.41A1,1,0,0,1,6.34,7.34Z"/><path class="cls-1" d="M5.64,19.36a1,1,0,0,1-.71-.29,1,1,0,0,1,0-1.41L5.64,17a1,1,0,0,1,1.41,1.41l-.71.71A1,1,0,0,1,5.64,19.36Z"/><path class="cls-1" d="M16.5,18a1,1,0,0,1-.82-1.57L18.08,13H15.5a1,1,0,0,1-.89-.54,1,1,0,0,1,.07-1l3.5-5a1,1,0,0,1,1.64,1.14L17.42,11H20a1,1,0,0,1,.89.54,1,1,0,0,1-.07,1l-3.5,5A1,1,0,0,1,16.5,18Z"/></svg>