<?xml version="1.0" encoding="iso-8859-1"?>
<!-- Generator: Adobe Illustrator 19.0.0, SVG Export Plug-In . SVG Version: 6.00 Build 0)  -->
<svg version="1.1" id="Layer_1" xmlns="http://www.w3.org/2000/svg" xmlns:xlink="http://www.w3.org/1999/xlink" x="0px" y="0px"
	 viewBox="0 0 511.998 511.998" style="enable-background:new 0 0 511.998 511.998;" xml:space="preserve">
<g>
	<g>
		<path d="M439.652,200.345c-9.22,0-16.696,7.475-16.696,16.696v16.696h-69.655c-0.468-1.32-0.994-2.611-1.566-3.877l45.297-90.593
			c16.668-33.339-7.607-72.487-44.8-72.487h-12.754c-9.22,0-16.696,7.475-16.696,16.696c0,9.221,7.475,16.696,16.696,16.696h12.754
			c12.416,0,20.482,13.065,14.934,24.162l-40.277,80.554c-1.339-0.614-2.707-1.174-4.106-1.67v-52.959
			c0-9.22-7.475-16.696-16.696-16.696h-66.783h-66.783c-9.221,0-16.696,7.475-16.696,16.696v52.959
			c-1.399,0.496-2.767,1.056-4.106,1.67l-40.277-80.554c-5.553-11.106,2.526-24.162,14.934-24.162h12.754
			c9.221,0,16.696-7.475,16.696-16.696c0-9.22-7.475-16.696-16.696-16.696h-12.757c-37.273,0-61.432,39.218-44.8,72.487
			l45.297,90.592c-2.843,6.281-4.439,13.242-4.439,20.574v42.08h0.001c-40.241,26.988-66.783,72.89-66.783,124.877v44.522
			c0,27.618,22.469,50.087,50.087,50.087h267.132c27.618,0,50.087-22.469,50.087-50.087v-44.522
			c0-51.988-26.542-97.889-66.783-124.877v-25.384h66.783v16.696c0,9.22,7.475,16.696,16.696,16.696
			c9.221,0,16.696-7.475,16.696-16.696v-66.783C456.348,207.82,448.873,200.345,439.652,200.345z M189.216,166.955h100.174v33.391
			H189.216V166.955z M155.825,250.433c0-9.206,7.49-16.696,16.696-16.696h133.566c9.206,0,16.696,7.49,16.696,16.696v25.291
			c-15.674-5.559-32.532-8.595-50.087-8.595h-66.783c-17.556,0-34.413,3.036-50.087,8.595V250.433z M389.565,417.39v44.522
			c0,9.206-7.49,16.696-16.696,16.696H105.738c-9.206,0-16.696-7.49-16.696-16.696V417.39c0-64.442,52.428-116.87,116.87-116.87
			h66.783C337.137,300.52,389.565,352.947,389.565,417.39z"/>
	</g>
</g>
<g>
	<g>
		<path d="M282.991,58.964c-0.031-0.057-0.065-0.114-0.097-0.169l-29.127-50.45c-6.423-11.125-22.49-11.128-28.916-0.002
			L195.716,58.79c-0.033,0.058-0.067,0.116-0.099,0.175c-18.66,33.228,5.429,74.599,43.687,74.599
			C277.555,133.563,301.659,92.192,282.991,58.964z M239.303,100.172c-12.74,0-20.738-13.752-14.613-24.784l14.615-25.306
			l14.613,25.311C260.037,86.402,252.056,100.172,239.303,100.172z"/>
	</g>
</g>
<g>
</g>
<g>
</g>
<g>
</g>
<g>
</g>
<g>
</g>
<g>
</g>
<g>
</g>
<g>
</g>
<g>
</g>
<g>
</g>
<g>
</g>
<g>
</g>
<g>
</g>
<g>
</g>
<g>
</g>
</svg>
